<svg xmlns="http://www.w3.org/2000/svg" fill="none" viewBox="0 0 14 14" height="40" width="40"><path fill="#2859C5" fill-rule="evenodd" d="M7.00006 0.0544434C3.1641 0.0544434 0.0544434 3.1641 0.0544434 7.00006C0.0544434 10.836 3.1641 13.9457 7.00006 13.9457C10.836 13.9457 13.9457 10.836 13.9457 7.00006C13.9457 3.1641 10.836 0.0544434 7.00006 0.0544434Z" clip-rule="evenodd"></path><path fill="#8FBFFA" fill-rule="evenodd" d="M4.12828 8.89444C3.81546 9.20726 3.39118 9.383 2.94879 9.383H0.474002C0.202554 8.6398 0.0544434 7.83723 0.0544434 7.00006C0.0544434 3.1641 3.1641 0.0544434 7.00006 0.0544434C7.32332 0.0544434 7.64142 0.0765269 7.95294 0.119268V2.94909C7.95294 3.39149 7.7772 3.81576 7.46438 4.12858C7.15156 4.4414 6.72728 4.61714 6.28489 4.61714C5.84249 4.61714 5.41822 4.79288 5.1054 5.1057C4.79258 5.41852 4.61684 5.8428 4.61684 6.28519V7.71495C4.61684 8.15735 4.4411 8.58162 4.12828 8.89444ZM13.9296 6.5235H9.62117C9.17877 6.5235 8.7545 6.69924 8.44168 7.01206C8.12886 7.32488 7.95312 7.74916 7.95312 8.19155C7.95312 8.63394 8.12886 9.05822 8.44168 9.37104C8.7545 9.68386 9.17877 9.8596 9.62117 9.8596C9.93716 9.8596 10.2402 9.98513 10.4637 10.2086C10.6871 10.432 10.8126 10.7351 10.8126 11.0511V12.8067C12.6999 11.565 13.9457 9.42802 13.9457 7.00006C13.9457 6.83988 13.9403 6.68097 13.9296 6.5235Z" clip-rule="evenodd"></path></svg>